<?xml version="1.0" standalone="no"?>
<!DOCTYPE svg PUBLIC "-//W3C//DTD SVG 20010904//EN"
 "http://www.w3.org/TR/2001/REC-SVG-20010904/DTD/svg10.dtd">
<svg version="1.0" xmlns="http://www.w3.org/2000/svg"
 width="260.000000pt" height="260.000000pt" viewBox="0 0 260.000000 260.000000"
 preserveAspectRatio="xMidYMid meet">
<metadata>
Created by potrace 1.11, written by Peter Selinger 2001-2013
</metadata>
<g transform="translate(0.000000,260.000000) scale(0.100000,-0.100000)"
fill="#000000" stroke="none">
<path d="M1154 2589 c-3 -5 -18 -7 -34 -5 -16 2 -32 1 -35 -2 -3 -3 -11 -7
-18 -8 -68 -11 -91 -15 -98 -20 -10 -6 -47 -15 -66 -16 -7 -1 -13 -5 -13 -10
0 -5 -6 -8 -12 -6 -20 4 -236 -100 -269 -128 -8 -8 -21 -14 -27 -14 -7 0 -12
-4 -12 -8 0 -4 -12 -15 -27 -24 -16 -9 -41 -28 -58 -42 -16 -14 -34 -26 -38
-26 -5 0 -5 -4 -2 -10 3 -5 2 -10 -3 -10 -27 0 -248 -263 -236 -281 2 -4 -3
-10 -12 -13 -8 -3 -13 -10 -10 -15 4 -5 2 -11 -3 -13 -11 -4 -75 -139 -100
-213 -28 -80 -68 -274 -67 -319 1 -20 -3 -36 -7 -36 -5 0 -5 -6 0 -12 11 -19
12 -37 2 -43 -4 -3 -4 -17 1 -31 13 -33 12 -43 -1 -24 -8 12 -9 11 -5 -5 3
-11 8 -44 10 -74 3 -29 10 -59 16 -66 8 -10 8 -15 0 -20 -7 -4 -8 -11 -1 -18
5 -7 9 -14 9 -17 -1 -3 3 -23 7 -45 5 -22 9 -47 10 -55 2 -18 13 -48 26 -72 5
-10 9 -27 9 -38 0 -11 5 -20 12 -20 6 0 9 -3 5 -6 -10 -11 123 -259 152 -284
3 -3 18 -21 32 -40 38 -51 158 -171 204 -206 22 -16 49 -37 60 -47 11 -10 31
-24 45 -31 14 -7 53 -29 87 -49 34 -19 78 -41 97 -48 20 -7 36 -17 36 -23 0
-5 3 -7 6 -3 4 3 22 0 40 -8 19 -8 34 -12 34 -9 0 2 12 -2 27 -9 22 -11 117
-32 130 -28 2 0 20 -5 40 -12 21 -7 63 -13 95 -13 31 1 55 -1 53 -4 -2 -3 21
-5 50 -5 29 0 51 3 49 7 -2 4 8 4 23 0 26 -7 48 -7 66 -2 4 1 16 4 27 5 11 1
21 3 23 5 3 2 24 7 67 14 81 14 141 30 146 38 3 4 13 8 23 8 10 0 36 7 57 16
22 9 39 16 39 15 0 -9 202 111 259 153 63 47 233 206 220 206 -2 0 4 8 13 18
26 27 44 52 74 97 61 94 79 125 73 125 -3 0 4 13 16 30 12 16 18 30 14 30 -3
0 -2 6 3 13 16 20 94 258 93 285 0 1 1 5 1 10 1 4 0 15 -1 25 -1 10 4 26 12
35 11 13 11 15 -2 7 -12 -7 -13 -6 -4 6 15 19 17 276 3 285 -8 4 -7 9 2 15 8
5 9 9 3 9 -6 0 -10 15 -9 35 1 19 -2 35 -6 35 -4 0 -6 8 -5 18 2 9 -2 20 -8
24 -7 5 -6 8 4 8 11 0 12 2 3 8 -7 4 -14 22 -18 39 -3 18 -9 43 -15 57 -5 15
-7 26 -4 26 4 0 -1 11 -10 25 -9 13 -16 30 -16 37 -1 38 -141 279 -205 352
-14 16 -25 33 -25 38 0 5 -4 6 -10 3 -5 -3 -10 -2 -10 3 0 9 -74 84 -135 137
-34 29 -142 101 -195 131 -19 10 -38 23 -41 28 -4 5 -11 6 -17 2 -5 -3 -15 1
-22 9 -7 8 -23 15 -36 15 -13 0 -24 4 -24 8 0 8 -85 38 -131 47 -10 2 -24 7
-30 11 -7 4 -24 9 -38 10 -27 4 -62 11 -71 14 -3 1 -13 1 -24 0 -10 -1 -23 4
-27 12 -7 11 -9 11 -9 -1 0 -10 -4 -11 -12 -3 -15 12 -286 13 -294 1z m204
-73 c7 -4 12 -2 12 5 0 8 4 8 13 2 6 -6 24 -9 40 -8 15 1 27 -1 27 -4 0 -3 12
-7 28 -8 57 -3 92 -8 92 -14 0 -3 11 -5 25 -4 14 2 25 -1 25 -6 0 -5 8 -9 17
-9 42 0 333 -131 353 -159 3 -4 26 -22 53 -41 26 -18 47 -38 47 -43 0 -6 3 -8
6 -5 8 8 117 -105 168 -172 22 -30 43 -57 46 -60 25 -22 137 -247 146 -290 4
-20 18 -67 23 -75 6 -11 9 -28 13 -67 1 -16 5 -28 8 -28 5 0 8 -24 13 -112 1
-16 4 -28 7 -28 8 0 5 -134 -4 -148 -4 -6 -3 -12 1 -12 10 0 10 -41 1 -56 -6
-9 -10 -30 -23 -119 -3 -22 -9 -49 -13 -60 -3 -11 -6 -22 -7 -25 -14 -78 -113
-286 -165 -347 -6 -7 -8 -13 -5 -13 4 0 0 -6 -7 -14 -27 -28 -58 -66 -53 -66
6 0 -153 -157 -189 -187 -14 -12 -26 -18 -26 -15 0 4 -4 2 -8 -4 -4 -6 -32
-26 -62 -44 -30 -18 -63 -40 -72 -48 -10 -8 -18 -11 -18 -7 0 4 -9 0 -21 -11
-12 -10 -24 -19 -28 -18 -3 0 -19 -4 -36 -11 -39 -16 -69 -26 -75 -27 -3 0
-13 -5 -24 -10 -10 -6 -33 -12 -50 -15 -17 -3 -39 -9 -50 -15 -14 -8 -17 -7
-10 4 6 10 5 11 -7 1 -8 -6 -30 -14 -49 -17 -19 -3 -46 -8 -60 -11 -47 -10
-335 -6 -335 5 0 1 -13 3 -30 5 -16 2 -48 9 -70 15 -22 5 -49 12 -60 13 -11 2
-40 12 -65 23 -25 10 -51 17 -57 16 -7 -2 -13 2 -13 8 0 6 -4 9 -9 6 -5 -4
-11 -1 -13 4 -2 6 -10 12 -18 13 -8 1 -37 15 -64 30 -27 15 -50 27 -53 27 -2
0 -9 4 -16 10 -56 45 -77 61 -77 57 0 -8 -55 40 -125 108 -104 101 -180 206
-244 338 -24 49 -44 94 -45 100 -1 7 -4 17 -7 22 -4 6 -10 24 -14 40 -5 17 -9
35 -11 40 -2 6 -5 20 -8 33 -3 13 -8 32 -11 42 -6 19 -14 65 -20 120 -5 39 -5
231 -1 270 2 14 6 41 10 60 3 19 8 45 9 57 2 12 6 26 10 29 4 4 7 17 7 29 0
13 7 40 16 61 9 21 17 46 19 55 6 31 98 209 108 209 6 0 8 3 4 6 -5 6 14 35
82 124 64 83 215 215 296 259 22 11 36 21 31 21 -13 0 78 46 146 74 31 13 59
21 62 18 3 -3 6 1 6 8 0 7 3 11 6 7 3 -3 29 3 58 13 29 10 72 21 97 25 24 4
53 9 64 11 11 3 44 7 74 9 30 3 56 7 58 8 6 6 90 0 101 -7z"/>
<path d="M1270 2460 c0 -5 5 -10 11 -10 5 0 7 5 4 10 -3 6 -8 10 -11 10 -2 0
-4 -4 -4 -10z"/>
<path d="M1220 2366 c0 -2 8 -10 18 -17 15 -13 16 -12 3 4 -13 16 -21 21 -21
13z"/>
<path d="M1130 2340 c0 -5 5 -10 11 -10 5 0 7 5 4 10 -3 6 -8 10 -11 10 -2 0
-4 -4 -4 -10z"/>
<path d="M1310 2316 c0 -2 8 -10 18 -17 15 -13 16 -12 3 4 -13 16 -21 21 -21
13z"/>
<path d="M1235 2289 c-4 -6 -5 -12 -2 -15 2 -3 7 2 10 11 7 17 1 20 -8 4z"/>
<path d="M1530 2260 c0 -5 5 -10 11 -10 5 0 7 5 4 10 -3 6 -8 10 -11 10 -2 0
-4 -4 -4 -10z"/>
<path d="M1050 2239 c0 -5 5 -7 10 -4 6 3 10 8 10 11 0 2 -4 4 -10 4 -5 0 -10
-5 -10 -11z"/>
<path d="M1095 2220 c-3 -5 -1 -10 4 -10 6 0 11 5 11 10 0 6 -2 10 -4 10 -3 0
-8 -4 -11 -10z"/>
<path d="M1130 2219 c0 -5 5 -7 10 -4 6 3 10 8 10 11 0 2 -4 4 -10 4 -5 0 -10
-5 -10 -11z"/>
<path d="M1435 2129 c-4 -6 -5 -12 -2 -15 2 -3 7 2 10 11 7 17 1 20 -8 4z"/>
<path d="M630 2121 c0 -6 4 -13 10 -16 6 -3 7 1 4 9 -7 18 -14 21 -14 7z"/>
<path d="M1429 2083 c-13 -16 -12 -17 4 -4 16 13 21 21 13 21 -2 0 -10 -8 -17
-17z"/>
<path d="M2069 2083 c-13 -16 -12 -17 4 -4 9 7 17 15 17 17 0 8 -8 3 -21 -13z"/>
<path d="M2130 2061 c0 -6 4 -13 10 -16 6 -3 7 1 4 9 -7 18 -14 21 -14 7z"/>
<path d="M954 2040 c0 -13 4 -16 10 -10 7 7 7 13 0 20 -6 6 -10 3 -10 -10z"/>
<path d="M999 2058 c-5 -18 -6 -38 -1 -34 7 8 12 36 6 36 -2 0 -4 -1 -5 -2z"/>
<path d="M1639 2033 c-13 -16 -12 -17 4 -4 9 7 17 15 17 17 0 8 -8 3 -21 -13z"/>
<path d="M895 2020 c-3 -5 -1 -10 4 -10 6 0 11 5 11 10 0 6 -2 10 -4 10 -3 0
-8 -4 -11 -10z"/>
<path d="M1450 2019 c0 -5 5 -7 10 -4 6 3 10 8 10 11 0 2 -4 4 -10 4 -5 0 -10
-5 -10 -11z"/>
<path d="M1735 1980 c3 -5 8 -10 11 -10 2 0 4 5 4 10 0 6 -5 10 -11 10 -5 0
-7 -4 -4 -10z"/>
<path d="M1630 1976 c0 -2 8 -10 18 -17 15 -13 16 -12 3 4 -13 16 -21 21 -21
13z"/>
<path d="M1020 1955 c-7 -9 -11 -17 -9 -20 3 -2 10 5 17 15 14 24 10 26 -8 5z"/>
<path d="M1775 1940 c-3 -5 -1 -10 4 -10 6 0 11 5 11 10 0 6 -2 10 -4 10 -3 0
-8 -4 -11 -10z"/>
<path d="M2050 1939 c0 -5 5 -7 10 -4 6 3 10 8 10 11 0 2 -4 4 -10 4 -5 0 -10
-5 -10 -11z"/>
<path d="M470 1936 c0 -2 8 -10 18 -17 15 -13 16 -12 3 4 -13 16 -21 21 -21
13z"/>
<path d="M870 1936 c0 -2 8 -10 18 -17 15 -13 16 -12 3 4 -13 16 -21 21 -21
13z"/>
<path d="M1630 1896 c0 -2 8 -10 18 -17 15 -13 16 -12 3 4 -13 16 -21 21 -21
13z"/>
<path d="M439 1873 c-13 -16 -12 -17 4 -4 9 7 17 15 17 17 0 8 -8 3 -21 -13z"/>
<path d="M930 1860 c0 -5 5 -10 11 -10 5 0 7 5 4 10 -3 6 -8 10 -11 10 -2 0
-4 -4 -4 -10z"/>
<path d="M1730 1859 c0 -5 5 -7 10 -4 6 3 10 8 10 11 0 2 -4 4 -10 4 -5 0 -10
-5 -10 -11z"/>
<path d="M1827 1839 c7 -7 15 -10 18 -7 3 3 -2 9 -12 12 -14 6 -15 5 -6 -5z"/>
<path d="M430 1816 c0 -2 8 -10 18 -17 15 -13 16 -12 3 4 -13 16 -21 21 -21
13z"/>
<path d="M1835 1800 c3 -5 8 -10 11 -10 2 0 4 5 4 10 0 6 -5 10 -11 10 -5 0
-7 -4 -4 -10z"/>
<path d="M810 1780 c0 -5 5 -10 11 -10 5 0 7 5 4 10 -3 6 -8 10 -11 10 -2 0
-4 -4 -4 -10z"/>
<path d="M760 1760 c-9 -6 -10 -10 -3 -10 6 0 15 5 18 10 8 12 4 12 -15 0z"/>
<path d="M2250 1740 c0 -5 5 -10 11 -10 5 0 7 5 4 10 -3 6 -8 10 -11 10 -2 0
-4 -4 -4 -10z"/>
<path d="M755 1720 c3 -5 8 -10 11 -10 2 0 4 5 4 10 0 6 -5 10 -11 10 -5 0 -7
-4 -4 -10z"/>
<path d="M1865 1720 c-3 -6 1 -7 9 -4 18 7 21 14 7 14 -6 0 -13 -4 -16 -10z"/>
<path d="M410 1700 c0 -5 5 -10 11 -10 5 0 7 5 4 10 -3 6 -8 10 -11 10 -2 0
-4 -4 -4 -10z"/>
<path d="M1882 1689 c-7 -11 -19 -18 -27 -15 -9 3 -12 0 -8 -10 3 -8 -1 -14
-11 -14 -9 0 -16 -6 -16 -12 0 -9 -4 -8 -10 2 -8 13 -10 12 -10 -3 0 -10 -7
-20 -15 -23 -8 -4 -12 -10 -9 -15 3 -5 1 -9 -5 -9 -5 0 -8 -8 -6 -17 1 -10 -2
-24 -8 -31 -14 -18 -12 -95 4 -134 12 -30 54 -73 71 -73 4 0 13 -6 20 -12 6
-7 20 -13 30 -13 10 0 18 -4 18 -8 0 -4 12 -9 28 -10 31 -2 107 -18 107 -22 0
-3 39 -12 58 -13 9 -1 17 -5 17 -9 0 -4 3 -7 8 -6 15 3 57 -24 76 -49 17 -23
21 -47 17 -98 -2 -28 -44 -74 -72 -79 -13 -3 -24 -5 -24 -6 0 -2 -42 -3 -92
-4 -51 -1 -93 2 -93 7 0 4 5 5 12 1 7 -4 8 -3 4 5 -6 9 -11 9 -22 0 -9 -7 -14
-8 -14 -1 0 6 -8 9 -17 8 -21 -4 -113 44 -120 61 -6 15 -33 5 -33 -13 0 -8 -4
-14 -9 -14 -20 0 2 -36 32 -55 44 -26 77 -44 82 -45 10 -1 32 -8 70 -20 40
-14 226 -21 219 -8 -3 5 37 23 59 26 18 3 84 82 93 113 9 33 11 98 3 129 -14
52 -137 129 -218 135 -18 2 -36 7 -40 11 -3 5 -15 10 -26 11 -11 0 -31 4 -45
8 -14 4 -30 7 -37 7 -7 1 -15 8 -17 15 -3 8 -11 11 -18 7 -8 -5 -9 -2 -5 9 4
12 2 14 -10 10 -18 -7 -33 13 -28 40 3 15 1 16 -10 7 -11 -9 -13 -6 -11 18 1
17 9 38 16 48 9 11 10 15 3 10 -9 -5 -11 -2 -7 8 3 9 11 13 17 9 6 -4 8 0 4
11 -5 12 0 19 18 26 14 5 25 15 25 22 0 10 2 10 9 0 6 -10 10 -10 20 2 13 16
161 21 161 5 0 -5 10 -9 23 -9 13 0 32 -8 43 -17 11 -10 26 -19 33 -21 7 -1
20 -9 28 -17 18 -19 24 -19 17 0 -4 8 -1 15 6 15 6 0 8 5 5 10 -3 6 -2 10 4
10 5 0 11 -6 14 -12 3 -7 4 -3 4 9 -1 12 -5 19 -9 17 -4 -3 -8 1 -8 10 0 8 3
16 8 19 4 2 1 2 -6 1 -13 -4 -52 15 -63 29 -3 5 -12 9 -20 10 -8 2 -20 6 -27
11 -17 11 -132 14 -187 6 -33 -5 -48 -3 -53 6 -6 10 -11 9 -20 -7z"/>
<path d="M602 1684 c-18 -12 -38 -58 -34 -76 1 -5 -3 -8 -8 -8 -6 0 -9 -3 -8
-7 0 -5 -7 -26 -17 -48 -9 -22 -18 -45 -19 -51 -1 -7 -7 -18 -14 -26 -6 -8
-13 -23 -15 -34 -2 -10 -12 -37 -22 -59 -10 -22 -20 -46 -21 -54 -2 -8 -9 -18
-16 -22 -7 -5 -10 -9 -6 -9 4 0 -3 -24 -16 -54 -13 -30 -22 -57 -18 -60 3 -3
1 -6 -5 -6 -6 0 -13 -10 -16 -22 -7 -33 -51 -132 -61 -139 -5 -4 -8 -18 -8
-33 0 -14 -5 -26 -10 -26 -5 0 -7 -4 -3 -10 5 -9 71 -8 78 1 2 2 11 24 21 49
10 25 26 64 37 88 10 23 19 45 20 50 0 4 5 15 11 25 8 16 22 18 109 16 55 -2
102 -6 105 -11 3 -4 11 -8 17 -8 7 0 6 4 -3 10 -12 8 -13 10 -1 10 8 0 23 -8
34 -18 11 -9 17 -11 13 -4 -11 18 21 27 41 11 12 -10 15 -10 9 -1 -10 17 6 15
30 -4 10 -8 13 -13 7 -9 -7 3 -13 1 -13 -4 0 -6 4 -11 9 -11 5 0 13 -10 17
-22 4 -13 16 -43 27 -68 11 -25 21 -47 22 -50 15 -47 25 -57 52 -55 55 4 56 4
39 21 -19 18 -21 28 -4 18 7 -4 2 7 -11 24 -12 18 -20 32 -17 32 2 0 -14 42
-36 93 -22 50 -41 97 -42 102 -2 6 -9 26 -17 45 -7 19 -12 39 -11 44 2 5 -1
12 -6 15 -6 3 -12 15 -14 26 -1 11 -7 23 -11 26 -5 4 -10 18 -10 32 -1 14 -6
23 -11 19 -5 -3 -7 5 -4 16 4 12 2 20 -2 17 -5 -3 -13 3 -19 12 -7 13 -6 22 5
34 12 14 12 16 -1 16 -8 0 -12 -4 -9 -9 3 -4 0 -8 -7 -8 -7 0 -10 11 -7 29 2
17 1 28 -3 25 -4 -2 -12 3 -17 13 -8 13 -6 20 6 30 15 10 14 11 -5 6 -20 -4
-23 -1 -23 21 0 18 4 25 12 20 7 -4 8 -3 4 5 -6 9 -11 9 -21 1 -9 -8 -14 -6
-17 8 -7 25 -42 33 -66 16z m55 -149 c8 -22 15 -46 15 -52 1 -7 6 -13 11 -13
5 0 7 -7 3 -15 -3 -8 0 -15 6 -15 7 0 6 -6 -2 -16 -11 -12 -11 -15 1 -12 8 2
13 -4 13 -14 -1 -10 3 -15 8 -12 6 4 9 1 6 -7 -3 -8 1 -20 9 -27 7 -8 11 -18
8 -23 -4 -5 -1 -9 5 -9 7 0 8 -6 0 -19 -7 -14 -7 -22 2 -27 7 -4 8 -3 4 4 -4
7 -3 12 2 12 6 0 12 -7 16 -15 3 -8 0 -15 -7 -15 -7 0 -8 -3 -2 -8 19 -13 17
-34 -2 -24 -10 4 -29 7 -43 6 -14 -1 -30 2 -37 8 -7 6 -14 5 -18 -2 -3 -5 -42
-10 -91 -10 -92 0 -92 0 -64 65 7 17 14 32 15 35 1 3 8 21 16 40 7 19 12 38
11 43 -1 4 2 7 6 7 5 0 17 25 27 55 11 30 23 55 27 55 4 0 7 3 7 8 -9 55 27
53 48 -3z"/>
<path d="M1097 1688 c-9 -5 -12 -110 -12 -377 0 -203 3 -367 7 -365 5 3 8 0 8
-6 0 -7 12 -9 31 -6 30 4 53 16 32 16 -11 0 -11 29 1 48 4 6 3 12 -2 12 -10 0
-7 54 3 71 4 5 3 9 -2 9 -16 0 -6 100 11 113 25 18 201 13 221 -6 8 -9 15 -18
15 -22 0 -3 20 -36 45 -74 25 -38 45 -73 45 -80 0 -6 4 -11 9 -11 5 0 13 -9
16 -20 11 -35 46 -61 81 -58 35 2 35 8 1 66 -10 17 -24 32 -30 32 -6 0 -8 3
-4 6 3 3 -21 47 -53 97 l-58 91 36 17 c42 20 82 53 82 67 0 5 7 15 15 22 8 7
12 16 9 21 -3 5 -1 9 3 9 14 0 20 113 9 164 -11 46 -86 143 -100 128 -3 -3 -6
-1 -6 5 0 23 -173 52 -186 31 -3 -4 -11 -5 -17 -1 -17 10 -110 10 -124 -1 -8
-5 -13 -5 -13 1 0 10 -57 11 -73 1z m338 -71 c11 -3 22 -6 25 -6 20 -3 62 -56
77 -97 15 -39 17 -59 10 -96 -5 -27 -13 -48 -18 -48 -5 0 -9 -9 -9 -20 0 -11
-3 -20 -8 -20 -4 0 -18 -10 -32 -23 -24 -21 -33 -23 -165 -22 -143 0 -175 6
-156 29 6 7 8 16 4 20 -10 10 -11 46 -1 52 4 3 5 13 0 22 -9 21 -9 53 1 70 5
6 4 12 -1 12 -10 0 -7 54 3 71 4 5 2 9 -2 9 -5 0 -9 9 -9 20 0 11 4 20 9 20 4
0 6 3 3 8 -5 8 236 7 269 -1z"/>
<path d="M1755 1661 c-3 -5 -2 -12 3 -15 5 -3 9 1 9 9 0 17 -3 19 -12 6z"/>
<path d="M330 1579 c0 -5 5 -7 10 -4 6 3 10 8 10 11 0 2 -4 4 -10 4 -5 0 -10
-5 -10 -11z"/>
<path d="M1895 1540 c3 -5 8 -10 11 -10 2 0 4 5 4 10 0 6 -5 10 -11 10 -5 0
-7 -4 -4 -10z"/>
<path d="M2140 1526 c0 -2 8 -10 18 -17 15 -13 16 -12 3 4 -13 16 -21 21 -21
13z"/>
<path d="M2200 1520 c-9 -6 -10 -10 -3 -10 6 0 15 5 18 10 8 12 4 12 -15 0z"/>
<path d="M1860 1486 c0 -2 8 -10 18 -17 15 -13 16 -12 3 4 -13 16 -21 21 -21
13z"/>
<path d="M2190 1456 c0 -2 8 -10 18 -17 15 -13 16 -12 3 4 -13 16 -21 21 -21
13z"/>
<path d="M390 1441 c0 -6 4 -13 10 -16 6 -3 7 1 4 9 -7 18 -14 21 -14 7z"/>
<path d="M2256 1438 c3 -5 10 -6 15 -3 13 9 11 12 -6 12 -8 0 -12 -4 -9 -9z"/>
<path d="M810 1420 c0 -5 5 -10 11 -10 5 0 7 5 4 10 -3 6 -8 10 -11 10 -2 0
-4 -4 -4 -10z"/>
<path d="M1780 1346 c0 -2 7 -7 16 -10 8 -3 12 -2 9 4 -6 10 -25 14 -25 6z"/>
<path d="M1950 1200 c0 -5 5 -10 11 -10 5 0 7 5 4 10 -3 6 -8 10 -11 10 -2 0
-4 -4 -4 -10z"/>
<path d="M1835 1161 c-3 -5 -2 -12 3 -15 5 -3 9 1 9 9 0 17 -3 19 -12 6z"/>
<path d="M1865 1160 c-3 -6 1 -7 9 -4 18 7 21 14 7 14 -6 0 -13 -4 -16 -10z"/>
<path d="M1950 1159 c0 -5 5 -7 10 -4 6 3 10 8 10 11 0 2 -4 4 -10 4 -5 0 -10
-5 -10 -11z"/>
<path d="M615 1140 c3 -5 8 -10 11 -10 2 0 4 5 4 10 0 6 -5 10 -11 10 -5 0 -7
-4 -4 -10z"/>
<path d="M1930 1100 c0 -5 5 -10 11 -10 5 0 7 5 4 10 -3 6 -8 10 -11 10 -2 0
-4 -4 -4 -10z"/>
<path d="M1890 1059 c0 -5 5 -7 10 -4 6 3 10 8 10 11 0 2 -4 4 -10 4 -5 0 -10
-5 -10 -11z"/>
<path d="M2013 1035 c0 -8 4 -12 9 -9 5 3 6 10 3 15 -9 13 -12 11 -12 -6z"/>
<path d="M530 979 c0 -5 5 -7 10 -4 6 3 10 8 10 11 0 2 -4 4 -10 4 -5 0 -10
-5 -10 -11z"/>
<path d="M2055 900 c3 -5 8 -10 11 -10 2 0 4 5 4 10 0 6 -5 10 -11 10 -5 0 -7
-4 -4 -10z"/>
<path d="M2175 900 c-3 -5 -1 -10 4 -10 6 0 11 5 11 10 0 6 -2 10 -4 10 -3 0
-8 -4 -11 -10z"/>
<path d="M513 835 c0 -8 4 -12 9 -9 4 3 8 9 8 15 0 5 -4 9 -8 9 -5 0 -9 -7 -9
-15z"/>
<path d="M2095 820 c3 -5 8 -10 11 -10 2 0 4 5 4 10 0 6 -5 10 -11 10 -5 0 -7
-4 -4 -10z"/>
<path d="M439 778 c-5 -18 -6 -38 -1 -34 7 8 12 36 6 36 -2 0 -4 -1 -5 -2z"/>
<path d="M474 769 c-3 -6 -2 -15 3 -20 5 -5 9 -1 9 11 0 23 -2 24 -12 9z"/>
<path d="M530 739 c0 -5 5 -7 10 -4 6 3 10 8 10 11 0 2 -4 4 -10 4 -5 0 -10
-5 -10 -11z"/>
<path d="M575 740 c-3 -5 -1 -10 4 -10 6 0 11 5 11 10 0 6 -2 10 -4 10 -3 0
-8 -4 -11 -10z"/>
<path d="M2076 713 c-6 -14 -5 -15 5 -6 7 7 10 15 7 18 -3 3 -9 -2 -12 -12z"/>
<path d="M736 702 c-3 -4 4 -9 15 -9 23 -2 25 3 4 10 -8 4 -16 3 -19 -1z"/>
<path d="M856 702 c-3 -4 4 -9 15 -9 23 -2 25 3 4 10 -8 4 -16 3 -19 -1z"/>
<path d="M976 702 c-3 -4 4 -9 15 -9 23 -2 25 3 4 10 -8 4 -16 3 -19 -1z"/>
<path d="M1096 702 c-3 -4 4 -9 15 -9 23 -2 25 3 4 10 -8 4 -16 3 -19 -1z"/>
<path d="M1350 696 c0 -2 8 -10 18 -17 15 -13 16 -12 3 4 -13 16 -21 21 -21
13z"/>
<path d="M1434 680 c0 -13 4 -16 10 -10 7 7 7 13 0 20 -6 6 -10 3 -10 -10z"/>
<path d="M1513 685 c0 -8 4 -12 9 -9 5 3 6 10 3 15 -9 13 -12 11 -12 -6z"/>
<path d="M1670 696 c0 -2 8 -10 18 -17 15 -13 16 -12 3 4 -13 16 -21 21 -21
13z"/>
<path d="M1754 680 c0 -13 4 -16 10 -10 7 7 7 13 0 20 -6 6 -10 3 -10 -10z"/>
<path d="M1833 685 c0 -8 4 -12 9 -9 5 3 6 10 3 15 -9 13 -12 11 -12 -6z"/>
<path d="M1255 680 c3 -5 8 -10 11 -10 2 0 4 5 4 10 0 6 -5 10 -11 10 -5 0 -7
-4 -4 -10z"/>
<path d="M1393 673 c0 -9 4 -10 14 -2 7 6 13 12 13 14 0 1 -6 2 -13 2 -8 0
-14 -6 -14 -14z"/>
<path d="M1473 673 c0 -9 4 -10 14 -2 7 6 13 12 13 14 0 1 -6 2 -13 2 -8 0
-14 -6 -14 -14z"/>
<path d="M1713 673 c0 -9 4 -10 14 -2 7 6 13 12 13 14 0 1 -6 2 -13 2 -8 0
-14 -6 -14 -14z"/>
<path d="M1793 673 c0 -9 4 -10 14 -2 7 6 13 12 13 14 0 1 -6 2 -13 2 -8 0
-14 -6 -14 -14z"/>
<path d="M1940 686 c0 -2 8 -10 18 -17 15 -13 16 -12 3 4 -13 16 -21 21 -21
13z"/>
<path d="M450 659 c0 -5 5 -7 10 -4 6 3 10 8 10 11 0 2 -4 4 -10 4 -5 0 -10
-5 -10 -11z"/>
<path d="M630 656 c0 -2 8 -10 18 -17 15 -13 16 -12 3 4 -13 16 -21 21 -21 13z"/>
<path d="M949 643 c-13 -16 -12 -17 4 -4 9 7 17 15 17 17 0 8 -8 3 -21 -13z"/>
<path d="M1470 616 c0 -2 8 -10 18 -17 15 -13 16 -12 3 4 -13 16 -21 21 -21
13z"/>
<path d="M1790 616 c0 -2 8 -10 18 -17 15 -13 16 -12 3 4 -13 16 -21 21 -21
13z"/>
<path d="M1935 580 c-3 -5 -1 -10 4 -10 6 0 11 5 11 10 0 6 -2 10 -4 10 -3 0
-8 -4 -11 -10z"/>
<path d="M1349 563 c-13 -16 -12 -17 4 -4 9 7 17 15 17 17 0 8 -8 3 -21 -13z"/>
<path d="M1669 563 c-13 -16 -12 -17 4 -4 16 13 21 21 13 21 -2 0 -10 -8 -17
-17z"/>
<path d="M855 560 c-3 -5 -1 -10 4 -10 6 0 11 5 11 10 0 6 -2 10 -4 10 -3 0
-8 -4 -11 -10z"/>
<path d="M650 546 c0 -2 7 -7 16 -10 8 -3 12 -2 9 4 -6 10 -25 14 -25 6z"/>
<path d="M1130 546 c0 -2 7 -7 16 -10 8 -3 12 -2 9 4 -6 10 -25 14 -25 6z"/>
<path d="M1925 540 c-3 -6 1 -7 9 -4 18 7 21 14 7 14 -6 0 -13 -4 -16 -10z"/>
<path d="M1107 299 c7 -7 15 -10 18 -7 3 3 -2 9 -12 12 -14 6 -15 5 -6 -5z"/>
<path d="M1056 262 c-3 -5 1 -9 9 -9 8 0 12 4 9 9 -3 4 -7 8 -9 8 -2 0 -6 -4
-9 -8z"/>
<path d="M1170 220 c0 -5 5 -10 11 -10 5 0 7 5 4 10 -3 6 -8 10 -11 10 -2 0
-4 -4 -4 -10z"/>
<path d="M1290 219 c0 -5 5 -7 10 -4 6 3 10 8 10 11 0 2 -4 4 -10 4 -5 0 -10
-5 -10 -11z"/>
<path d="M1469 203 c-13 -16 -12 -17 4 -4 16 13 21 21 13 21 -2 0 -10 -8 -17
-17z"/>
<path d="M1390 206 c0 -2 7 -7 16 -10 8 -3 12 -2 9 4 -6 10 -25 14 -25 6z"/>
<path d="M1210 161 c0 -6 4 -13 10 -16 6 -3 7 1 4 9 -7 18 -14 21 -14 7z"/>
</g>
</svg>
